<svg version="1.1"  xmlns="http://www.w3.org/2000/svg" xmlns:xlink="http://www.w3.org/1999/xlink" x="0px" y="0px"
	 viewBox="0 0 191.711 42.366" enable-background="new 0 0 191.711 42.366" xml:space="preserve">
<g>

		<ellipse transform="matrix(0.9879 -0.1549 0.1549 0.9879 -2.2452 16.4568)" opacity="0.5" fill="#FFFFFF" cx="104.501" cy="22.639" rx="79.876" ry="15.555"/>
	<g>
		<path fill-rule="evenodd" clip-rule="evenodd" fill="#FFFFFF" d="M27.385,0.323c-0.642,3.623-1.16,6.707-1.762,9.774
			c-0.08,0.409-0.581,0.735-0.887,1.101c-0.302-0.394-0.694-0.744-0.889-1.185c-0.688-1.56-1.259-3.171-1.967-4.72
			C20.465,2.2,14,2.109,11.688,4.499c-1.6,1.653-1.779,4.363-0.015,6.395c1.438,1.655,3.256,2.979,4.892,4.463
			c1.632,1.481,3.405,2.846,4.834,4.504c3.116,3.615,3.273,7.702,1.234,11.881c-2.187,4.484-6.303,5.46-10.724,5.248
			c-2.287-0.109-4.546-0.972-6.799-1.562c-1.339-0.352-2.512-0.594-3.281,1.013C1.658,36.801,0.885,36.875,0,37.243
			c0.605-3.885,1.124-7.329,1.712-10.761c0.047-0.274,0.668-0.711,0.87-0.64c0.344,0.123,0.675,0.544,0.822,0.914
			c0.585,1.475,0.877,3.109,1.68,4.444c1.951,3.242,5.553,4.422,9.157,3.259c3.839-1.236,5.698-5.23,3.588-8.714
			c-1.291-2.128-3.411-3.787-5.283-5.522c-1.701-1.578-3.809-2.764-5.32-4.489C2.57,10.418,4.849,3.021,11.642,1.143
			c3.354-0.929,6.701-0.747,9.928,0.692c1.439,0.643,2.79,1.002,3.864-0.71C25.67,0.748,26.426,0.697,27.385,0.323z"/>
		<path fill-rule="evenodd" clip-rule="evenodd" fill="#FFFFFF" d="M83.238,32.928c-1.05,0.854-1.944,1.839-3.051,2.414
			c-1.5,0.779-3.119,1.535-4.764,1.781c-3.195,0.477-5.353-1.855-4.768-5.063c0.748-4.103,1.702-8.168,2.556-12.251
			c0.118-0.563,0.179-1.141-0.094-1.875c-0.3,0.328-0.542,0.799-0.913,0.949c-0.466,0.188-1.192,0.331-1.524,0.096
			c-0.355-0.253-0.659-1.078-0.505-1.463c1.051-2.63,4.354-4.659,7.215-4.571c1.765,0.055,2.612,1.179,2.626,2.73
			c0.013,1.445-0.296,2.92-0.644,4.337c-0.879,3.579-1.894,7.124-2.769,10.703c-0.157,0.642-0.039,1.927,0.186,1.983
			c0.816,0.205,1.911,0.316,2.581-0.079c2.883-1.698,4.638-4.358,5.559-7.53c0.924-3.184,1.848-6.38,2.523-9.621
			c0.41-1.967,1.284-2.736,3.26-2.463c1.007,0.14,2.05,0.025,3.461,0.025c-1.716,6.754-3.346,13.173-4.975,19.591
			c0.232,0.138,0.465,0.276,0.697,0.415c0.703-0.669,1.356-1.402,2.126-1.98c0.398-0.301,1.002-0.328,1.513-0.479
			c-0.001,0.536,0.227,1.296-0.042,1.573c-1.521,1.567-2.956,3.38-4.806,4.429c-3.054,1.729-5.058,0.393-5.266-3.073
			C83.411,33.341,83.321,33.183,83.238,32.928z"/>
		<path fill-rule="evenodd" clip-rule="evenodd" fill="#FFFFFF" d="M113.418,29.007c0.031-7.357,6.189-15.32,12.906-16.467
			c1.512-0.258,3.223-0.084,4.705,0.354c3.113,0.92,4.243,4.967,1.92,7.36c-1.714,1.767-3.899,3.138-6.039,4.411
			c-1.455,0.868-3.17,1.332-4.808,1.851c-2.257,0.716-2.729,1.312-2.441,3.489c0.294,2.219,1.635,3.74,3.61,3.314
			c1.824-0.393,3.475-1.598,5.203-2.438c0.51-0.248,1.191-0.805,1.514-0.647c0.895,0.441,1.347,1.146,0.47,2.193
			c-2.869,3.429-9.299,5.314-13.479,3.703c-2.575-0.994-3.166-3.405-3.551-5.833C113.361,29.877,113.418,29.437,113.418,29.007z
			 M120.213,23.664c0.22,0.161,0.44,0.323,0.661,0.484c2.659-1.124,5.046-2.705,6.909-4.927c0.864-1.031,1.316-2.466,0.203-3.696
			c-0.775-0.858-2.794-0.489-3.688,0.895C122.797,18.744,121.561,21.24,120.213,23.664z"/>
		<path fill-rule="evenodd" clip-rule="evenodd" fill="#FFFFFF" d="M166.873,30.486c-0.061,0.601,0.111,1.427-0.217,1.771
			c-2.789,2.905-6.104,4.77-10.276,4.59c-3.161-0.137-5.385-2.111-6.166-5.157c-2.411-9.393,6.142-18.534,12.949-19.219
			c1.487-0.149,3.106-0.002,4.526,0.445c3.096,0.977,4.216,5.095,1.803,7.372c-1.912,1.804-4.373,3.102-6.75,4.305
			c-1.787,0.905-3.861,1.225-5.74,1.976c-0.568,0.228-1.207,0.981-1.295,1.572c-0.278,1.85-0.299,3.784,1.5,5.001
			c1.934,1.309,3.911,0.783,5.741-0.289c1.157-0.676,2.187-1.568,3.274-2.365C166.439,30.486,166.656,30.486,166.873,30.486z
			 M156.895,23.677c0.185,0.206,0.369,0.411,0.553,0.618c1.949-1.308,3.952-2.543,5.817-3.962c0.73-0.557,1.392-1.455,1.636-2.323
			c0.213-0.756,0.064-2.14-0.417-2.432c-0.659-0.4-2.054-0.384-2.665,0.074C159.145,17.663,157.626,20.466,156.895,23.677z"/>
		<path fill-rule="evenodd" clip-rule="evenodd" fill="#FFFFFF" d="M145.938,29.712c1.081,0.51,1.082,1.278,0.396,2.295
			c-1.365,2.024-2.863,3.883-5.322,4.614c-2.849,0.848-5.504-0.386-4.865-3.585c0.803-4.022,1.471-8.076,2.431-12.062
			c1.41-5.853,3.026-11.656,4.624-17.743c-0.844-0.177-1.572-0.33-2.857-0.599c0.457-0.579,0.752-1.343,1.179-1.427
			c2.405-0.472,4.843-0.781,7.678-1.206c-0.313,2.604-0.376,5.048-0.931,7.372c-1.737,7.295-3.65,14.547-5.527,21.808
			c-0.243,0.942-0.73,1.821-0.988,2.763c-0.094,0.346,0.037,1.028,0.258,1.126c0.37,0.165,1.088,0.165,1.318-0.083
			C144.232,32.011,145.002,30.913,145.938,29.712z"/>
		<path fill-rule="evenodd" clip-rule="evenodd" fill="#FFFFFF" d="M26.627,27.532c0.16-5.066,3.466-10.016,9.191-13.443
			c2.185-1.309,4.645-1.61,7.147-1.21c1.569,0.252,3.157,0.835,3.564,2.517c0.413,1.701,0.482,3.412-0.854,5.034
			c-2.962,3.595-6.826,5.316-11.278,5.949c-1.404,0.198-2.138,0.504-2.043,2.232c0.237,4.328,2.805,6.023,6.685,4.096
			c1.083-0.538,1.967-1.466,3.02-2.084c0.399-0.234,1.343-0.297,1.465-0.095c0.274,0.459,0.461,1.308,0.211,1.689
			c-2.276,3.491-8.528,5.902-12.479,4.668C27.725,35.783,26.583,33.963,26.627,27.532z M32.769,24.835
			c2.979-1.044,5.41-2.248,7.361-4.242c0.703-0.719,1.5-1.578,1.698-2.494c0.201-0.931,0.045-2.432-0.562-2.906
			c-0.615-0.481-2.251-0.4-2.958,0.107C35.194,17.532,33.694,20.811,32.769,24.835z"/>
		<path fill-rule="evenodd" clip-rule="evenodd" fill="#FFFFFF" d="M54.822,27.943c0,0.246-0.006,0.493,0.001,0.739
			c0.051,1.879,0.094,3.878,2.085,4.778c1.959,0.884,3.857,0.277,5.53-0.991c0.686-0.52,1.29-1.18,2.037-1.575
			c0.409-0.216,1.229-0.213,1.516,0.059c0.284,0.27,0.377,1.226,0.132,1.495c-3.167,3.469-6.96,5.487-11.814,4.544
			c-3.933-0.766-5.934-4.117-5.957-8.99c-0.031-6.395,5.872-12.938,10.757-14.591c3.314-1.121,6.545-1.201,9.219,1.635
			c1.147,1.218,1.25,3.361,0.167,4.528c-0.906,0.976-3.63,1.162-4.652,0.319c-0.96-0.793-1.013-2.379-0.186-3.487
			c0.29-0.388,0.413-0.9,0.612-1.355c-0.553-0.21-1.274-0.751-1.629-0.571c-1.542,0.783-3.51,1.44-4.342,2.761
			C56.278,20.446,54.578,23.926,54.822,27.943z"/>
		<path fill-rule="evenodd" clip-rule="evenodd" fill="#FFFFFF" d="M106.801,15.564c1.406-1.001,2.699-2.121,4.17-2.91
			c1.365-0.732,2.817-0.371,3.881,0.779c1.1,1.192,1.271,2.638,0.622,4.131c-0.887,2.041-3.237,2.659-4.825,1.11
			c-1.218-1.189-2.18-0.919-2.81,0.288c-1.126,2.162-2.194,4.393-2.937,6.706c-0.92,2.859-1.581,5.815-2.164,8.768
			c-0.342,1.728-1.117,2.311-2.87,2.248c-3.327-0.119-3.373-0.03-2.734-3.213c0.978-4.875,2.017-9.738,3.038-14.604
			c0.326-1.554,1.11-3.283-1.604-3.449c-0.229-0.014-0.59-0.489-0.602-0.764c-0.01-0.277,0.293-0.776,0.53-0.824
			c2.528-0.508,5.063-0.987,7.616-1.341c0.25-0.035,0.808,0.784,0.893,1.266C107.113,14.354,106.878,15.017,106.801,15.564z"/>
		<path fill-rule="evenodd" clip-rule="evenodd" fill="#FFFFFF" d="M189.254,31.843c-2.659,2.895-5.664,5.058-9.826,5.027
			c-4.074-0.03-6.562-1.976-7.027-6.043c-0.246-2.151-0.147-4.457,0.358-6.558c1.109-4.607,3.218-8.702,7.948-10.615
			c2.465-0.996,5.157-1.426,7.705-0.456c1.206,0.458,2.496,1.516,3.039,2.644c0.453,0.939,0.303,2.81-0.367,3.477
			c-0.693,0.69-2.408,0.749-3.546,0.499c-1.44-0.315-1.368-1.701-0.962-2.885c0.191-0.559,0.59-1.045,0.919-1.605
			c-1.354-1.499-2.989-1.089-3.996-0.143c-1.707,1.606-3.327,3.465-4.425,5.518c-1.487,2.784-1.98,5.929-1.617,9.135
			c0.449,3.951,3.325,5.536,6.857,3.695c1.076-0.561,2.066-1.336,2.982-2.143C188.211,30.583,188.76,30.725,189.254,31.843z"/>
	</g>
</g>
</svg>
