<svg version="1.1"  xmlns="http://www.w3.org/2000/svg" xmlns:xlink="http://www.w3.org/1999/xlink" x="0px" y="0px"
	viewBox="0 0 30.288 35.048" enable-background="new 0 0 30.288 35.048" xml:space="preserve">
<g>
	<g>
		<g>
			<path fill="#FFFFFF" d="M1.201,34.997c-0.272-0.071-0.528-0.213-0.737-0.424c-0.546-0.554-0.617-1.415-0.171-2.05l9.506-13.509
				l-3.964-1.027c-0.539-0.14-0.966-0.548-1.13-1.08c-0.163-0.531-0.038-1.11,0.328-1.529L18.065,0.544
				c0.4-0.454,1.021-0.645,1.606-0.493l9.415,2.438c0.555,0.144,0.99,0.571,1.143,1.124c0.153,0.554,0.001,1.144-0.401,1.552
				l-8.438,8.574l5.07,1.313c0.606,0.157,1.066,0.655,1.178,1.272c0.106,0.618-0.155,1.242-0.67,1.599L2.512,34.766
				C2.117,35.037,1.637,35.109,1.201,34.997"/>
		</g>
	</g>
</g>
</svg>
