<?xml version="1.0" encoding="utf-8"?>
<!-- Generator: Adobe Illustrator 16.0.0, SVG Export Plug-In . SVG Version: 6.00 Build 0)  -->
<!DOCTYPE svg PUBLIC "-//W3C//DTD SVG 1.1//EN" "http://www.w3.org/Graphics/SVG/1.1/DTD/svg11.dtd">
<svg version="1.1" id="Layer_1" xmlns="http://www.w3.org/2000/svg" xmlns:xlink="http://www.w3.org/1999/xlink" x="0px" y="0px"
	 width="106.197px" height="65.431px" viewBox="0 0 106.197 65.431" enable-background="new 0 0 106.197 65.431"
	 xml:space="preserve">
<g>
	
		<ellipse transform="matrix(0.9879 -0.1549 0.1549 0.9879 -4.3856 8.6149)" opacity="0.1" fill="#00B050" cx="53.098" cy="32.455" rx="53.721" ry="10.462"/>
	<polyline fill="#00B050" points="46.739,57.391 46.739,45.935 51.128,46.816 51.128,59.76 	"/>
	<g>
		<path fill="#12753F" d="M24.176,21.431v24.85c0,0.459,0.323,0.884,0.865,1.135l9.31,4.315c0.309,0.144,0.668,0.222,1.037,0.222
			c0.418,0,0.829-0.101,1.159-0.28l1.729-0.773v2.534c0,0.46,0.322,0.884,0.863,1.135l18.422,8.543
			c0.309,0.143,0.668,0.219,1.04,0.219c0.431,0,0.854-0.105,1.19-0.297l0.061-0.033l18.615-8.31c0.559-0.25,0.893-0.68,0.893-1.147
			v-2.904l1.695,0.758c0.365,0.195,0.775,0.295,1.193,0.295c0.369,0,0.727-0.076,1.039-0.22l9.307-4.315
			c0.543-0.251,0.865-0.676,0.865-1.136V24.773c0-0.551-0.463-1.042-1.178-1.252l-9.322-3.918c-0.293-0.123-0.629-0.188-0.971-0.188
			c-0.35,0-0.693,0.067-0.994,0.199l-1.635,0.713v-8.835c0-0.207-0.07-0.415-0.197-0.602l-0.039-0.055
			c-0.16-0.229-0.405-0.42-0.713-0.554L60.104,2.301c-0.3-0.13-0.644-0.199-0.994-0.199c-0.341,0-0.677,0.065-0.971,0.188
			l-18.617,7.835c-0.778,0.229-1.245,0.715-1.245,1.258v5.601l-1.637-0.713c-0.301-0.13-0.644-0.199-0.996-0.199
			c-0.339,0-0.676,0.065-0.969,0.188l-9.347,3.933C24.614,20.427,24.176,20.906,24.176,21.431z M79.36,47.72V23.504l0.256-0.111
			l2.359-1.025l0.945,0.393v-0.004l0.621,0.239l6.109,2.57v19.723l-7.91,3.521l-2.129-0.947L79.36,47.72z M59.526,59.944
			l0.191-54.633l15.835,6.901v40.579L59.526,59.944z M42.084,12.194l15.993-6.729l-0.189,54.562l-7.294-3.383L45.6,54.327
			l-3.516-1.63V12.194L42.084,12.194z M27.983,22.223l6.729-2.831v0.01l0.864-0.376l0.775,0.322v-0.014l0.625,0.261l1.297,0.567
			v27.505l-2.973,1.272l-7.318-3.394V22.223L27.983,22.223z"/>
		<path fill="#12753F" d="M43.426,35.417c0-0.401,0.46-0.7,1.022-0.664l2.115,0.136c0.562,0.035,1.021,0.393,1.021,0.794v3.687
			c0,0.401-0.449,0.655-0.999,0.564l-2.161-0.354c-0.549-0.091-0.999-0.492-0.999-0.894V35.417L43.426,35.417z"/>
		<path fill="#12753F" d="M43.426,25.961c0-0.4,0.452-0.791,1.007-0.866l2.146-0.294c0.555-0.075,1.007,0.19,1.007,0.592v3.687
			c0,0.4-0.46,0.745-1.024,0.766l-2.11,0.078c-0.563,0.021-1.024-0.291-1.024-0.692V25.961L43.426,25.961z"/>
		<path fill="#12753F" d="M46.651,14.695c0.514-0.167,0.932,0.025,0.932,0.427v3.66c0,0.401-0.438,0.833-0.972,0.96l-2.215,0.525
			c-0.535,0.128-0.974-0.097-0.974-0.498v-3.302c0-0.401,0.421-0.865,0.934-1.031L46.651,14.695z"/>
		<path fill="#12753F" d="M54.446,38.914c0.552,0.085,1.002,0.482,1.002,0.883v4.433c0,0.4-0.434,0.617-0.963,0.48l-2.729-0.705
			c-0.53-0.137-0.964-0.576-0.964-0.978v-3.943c0-0.401,0.453-0.66,1.004-0.575L54.446,38.914z"/>
		<path fill="#12753F" d="M54.443,23.755c0.554-0.078,1.006,0.186,1.006,0.587v4.432c0,0.401-0.46,0.746-1.024,0.769l-2.652,0.1
			c-0.564,0.021-1.023-0.291-1.023-0.691v-3.944c0-0.401,0.451-0.794,1.005-0.871L54.443,23.755z"/>
		<path fill="#12753F" d="M74.131,35.417c0-0.401-0.459-0.7-1.021-0.664l-2.115,0.136c-0.562,0.035-1.021,0.393-1.021,0.794v3.687
			c0,0.401,0.449,0.655,0.998,0.564l2.162-0.354c0.549-0.091,0.998-0.492,0.998-0.894L74.131,35.417L74.131,35.417L74.131,35.417z"
			/>
		<path fill="#12753F" d="M66.183,30.393c0-0.4-0.46-0.746-1.023-0.768l-2.111-0.078c-0.562-0.021-1.023,0.29-1.023,0.691v4.452
			c0,0.401,0.459,0.702,1.021,0.669l2.115-0.122c0.562-0.032,1.021-0.387,1.021-0.788L66.183,30.393L66.183,30.393L66.183,30.393z"
			/>
		<path fill="#12753F" d="M74.169,21.174c0-0.4-0.441-0.825-0.98-0.942l-2.197-0.479c-0.539-0.118-0.98,0.115-0.98,0.516v3.708
			c0,0.401,0.455,0.785,1.011,0.854l2.138,0.265c0.557,0.069,1.012-0.203,1.012-0.604v-3.317H74.169L74.169,21.174z"/>
		<path fill="#12753F" d="M62.95,12.057c-0.514-0.165-0.934,0.027-0.934,0.429v4.438c0,0.4,0.438,0.833,0.973,0.96l2.217,0.525
			c0.534,0.127,0.973-0.098,0.973-0.499v-4.078c0-0.4-0.42-0.864-0.933-1.032L62.95,12.057z"/>
		<path fill="#12753F" d="M62.984,46.968c-0.532,0.134-0.968,0.57-0.968,0.972v4.432c0,0.401,0.415,0.586,0.921,0.409l2.813-0.979
			c0.507-0.176,0.922-0.648,0.922-1.049v-3.977c0-0.401-0.436-0.62-0.967-0.487L62.984,46.968z"/>
	</g>
</g>
</svg>
