<?xml version="1.0" encoding="utf-8"?>
<!-- Generator: Adobe Illustrator 16.0.0, SVG Export Plug-In . SVG Version: 6.00 Build 0)  -->
<!DOCTYPE svg PUBLIC "-//W3C//DTD SVG 1.1//EN" "http://www.w3.org/Graphics/SVG/1.1/DTD/svg11.dtd">
<svg version="1.1" id="Layer_1" xmlns="http://www.w3.org/2000/svg" xmlns:xlink="http://www.w3.org/1999/xlink" x="0px" y="0px"
	 width="106.197px" height="65.431px" viewBox="0 0 106.197 65.431" enable-background="new 0 0 106.197 65.431"
	 xml:space="preserve">
<g>
	
		<ellipse transform="matrix(0.9879 -0.1549 0.1549 0.9879 -4.5187 8.6253)" opacity="0.1" fill="#00B050" cx="53.099" cy="33.314" rx="53.721" ry="10.462"/>
	<g>
		<path fill="none" d="M78.384,42.041c0.046,0.264-0.023,0.542-0.195,0.751l-2.775,3.393c-0.175,0.213-0.44,0.338-0.719,0.338
			c-0.278,0-0.543-0.12-0.718-0.338l-2.775-3.393c-0.171-0.209-0.241-0.482-0.194-0.751l2.222-12.579l-0.043-0.378
			c-2.659-0.264-5.209-1.167-7.486-2.659c0.039,0.4,0.062,0.805,0.062,1.215c0,5.194-3.151,9.663-7.641,11.604
			c-0.057,0.345-0.112,0.691-0.157,1.045c1.12-0.427,2.182-0.995,3.158-1.717c0.682-0.545,1.822-0.627,2.625-0.091
			c3.14,2.021,5.578,5.075,7.203,8.865c1.209,0.054,2.5,0.084,3.879,0.084c11.212,0,16.774-1.956,17.138-2.953
			c-0.005-8.175-2.82-14.788-7.749-18.213c-2.392,1.656-5.124,2.62-8.016,2.853l-0.04,0.345L78.384,42.041z"/>
		<path fill="none" d="M62.693,28.746c-1.522,1.757-2.724,3.926-3.567,6.422C61.066,33.618,62.395,31.338,62.693,28.746z"/>
		<path fill="none" d="M42.518,38.468c0.875-0.526,1.939-0.427,2.646,0.138c0.889,0.639,1.845,1.163,2.847,1.57
			c-0.048-0.361-0.106-0.714-0.167-1.066c-4.338-2.004-7.362-6.385-7.362-11.47c0-0.461,0.028-0.915,0.077-1.363
			c-0.005-0.004-0.01-0.008-0.015-0.012c-2.392,1.656-5.124,2.62-8.016,2.853l-0.04,0.345l2.222,12.579
			c0.046,0.264-0.023,0.542-0.195,0.751l-2.775,3.393c-0.175,0.213-0.44,0.338-0.719,0.338c-0.278,0-0.543-0.12-0.718-0.338
			l-2.775-3.393c-0.171-0.209-0.241-0.482-0.194-0.751l2.222-12.579l-0.043-0.378c-2.76-0.273-5.405-1.229-7.747-2.823
			c-4.914,3.393-7.744,10.02-7.744,18.249c0.358,0.965,5.921,2.921,17.133,2.921c1.483,0,2.861-0.036,4.147-0.098
			C36.929,43.546,39.371,40.494,42.518,38.468z"/>
		<path fill="none" d="M46.756,34.859c-0.774-2.183-1.834-4.105-3.145-5.719C43.967,31.405,45.11,33.406,46.756,34.859z"/>
		<path fill="none" d="M50.451,36.895c0.849,0.246,1.744,0.385,2.671,0.385c0.828,0,1.627-0.116,2.394-0.313
			c1.152-5.054,3.496-9.231,6.837-12.091C61.161,20.903,57.476,18,53.122,18c-4.417,0-8.141,2.99-9.276,7.051
			C47.056,27.885,49.317,31.974,50.451,36.895z"/>
		<path fill="none" d="M51.011,40.089c0.031,0.251,0.065,0.5,0.091,0.755h3.778c0.024-0.241,0.057-0.477,0.085-0.715
			c-0.604,0.089-1.216,0.15-1.844,0.15C52.401,40.279,51.699,40.205,51.011,40.089z"/>
		<path fill="none" d="M74.828,22.279c5.315,0,9.64-4.324,9.64-9.64S80.143,3,74.828,3s-9.64,4.324-9.64,9.64
			S69.512,22.279,74.828,22.279z"/>
		<path fill="none" d="M31.154,22.279c5.315,0,9.64-4.324,9.64-9.64S36.47,3,31.154,3s-9.64,4.324-9.64,9.64
			S25.839,22.279,31.154,22.279z"/>
		<path fill="#00B050" d="M54.456,44.462l0.04-0.345l0.067-0.583l0.162-0.314c0.025-0.73,0.063-1.454,0.13-2.161
			c0.007-0.072,0.018-0.143,0.025-0.215h-3.778c0.006,0.061,0.016,0.119,0.021,0.18c0.069,0.72,0.109,1.457,0.134,2.202l0.159,0.309
			l0.063,0.55l0.043,0.378l-2.222,12.579c-0.046,0.269,0.023,0.542,0.194,0.751l2.775,3.393c0.175,0.218,0.44,0.338,0.718,0.338
			c0.279,0,0.543-0.125,0.719-0.338l2.775-3.393c0.172-0.209,0.241-0.487,0.195-0.751L54.456,44.462z"/>
		<path fill="#12753F" d="M74.828,25.279c6.97,0,12.64-5.67,12.64-12.64S81.797,0,74.828,0s-12.64,5.67-12.64,12.64
			S67.858,25.279,74.828,25.279z M74.828,3c5.315,0,9.64,4.324,9.64,9.64s-4.324,9.64-9.64,9.64s-9.64-4.324-9.64-9.64
			S69.512,3,74.828,3z"/>
		<path fill="#00B050" d="M76.162,29.462l0.04-0.345l0.067-0.583l1.368-2.653l0.019-0.037h-5.785h-0.136l1.387,2.69l0.063,0.55
			l0.043,0.378l-2.222,12.579c-0.046,0.269,0.023,0.542,0.194,0.751l2.775,3.393c0.175,0.218,0.44,0.338,0.718,0.338
			c0.279,0,0.543-0.125,0.719-0.338l2.775-3.393c0.172-0.209,0.241-0.487,0.195-0.751L76.162,29.462z"/>
		<g>
			<path fill="#12753F" d="M40.559,26.276c-0.048,0.448-0.077,0.902-0.077,1.363c0,5.085,3.024,9.466,7.362,11.47
				c0.994,0.46,2.055,0.791,3.167,0.979c0.688,0.116,1.39,0.19,2.11,0.19c0.628,0,1.241-0.062,1.844-0.15
				c1.103-0.162,2.163-0.456,3.154-0.885c4.49-1.941,7.641-6.41,7.641-11.604c0-0.41-0.023-0.814-0.062-1.215
				c2.277,1.492,4.827,2.396,7.486,2.659l-0.063-0.55l-1.387-2.69h0.136c-1.793-0.4-3.494-1.154-5-2.238
				c-0.523-0.418-1.243-0.579-1.936-0.422C63.127,18.409,58.521,15,53.122,15c-5.424,0-10.047,3.44-11.837,8.248
				c-0.73-0.248-1.58-0.116-2.131,0.324c-1.549,1.146-3.311,1.919-5.19,2.309l-1.368,2.653l-0.067,0.583
				c2.892-0.232,5.624-1.196,8.016-2.853C40.548,26.269,40.553,26.272,40.559,26.276z M43.845,25.051
				C44.98,20.99,48.704,18,53.122,18c4.354,0,8.039,2.903,9.231,6.875c0.263,0.877,0.409,1.804,0.409,2.765
				c0,0.375-0.027,0.743-0.068,1.106c-0.298,2.592-1.627,4.872-3.567,6.422c-1.048,0.837-2.274,1.455-3.61,1.798
				c-0.767,0.197-1.566,0.313-2.394,0.313c-0.927,0-1.822-0.139-2.671-0.385c-1.386-0.4-2.641-1.104-3.695-2.035
				c-1.646-1.453-2.789-3.454-3.145-5.719c-0.077-0.49-0.129-0.989-0.129-1.501C43.482,26.742,43.615,25.876,43.845,25.051z"/>
			<path fill="#12753F" d="M85.452,23.481c-0.803-0.536-1.943-0.454-2.625,0.091c-1.549,1.146-3.311,1.919-5.19,2.309l-1.368,2.653
				l-0.067,0.583c2.892-0.232,5.624-1.196,8.016-2.853c4.928,3.425,7.744,10.038,7.749,18.213
				c-0.363,0.997-5.926,2.953-17.138,2.953c-1.379,0-2.67-0.03-3.879-0.084c-1.625-3.79-4.063-6.844-7.203-8.865
				c-0.803-0.536-1.943-0.454-2.625,0.091c-0.976,0.722-2.038,1.29-3.158,1.717l-3.083,0.555c-0.007,0.072-0.019,0.143-0.025,0.215
				c-0.067,0.707-0.105,1.431-0.13,2.161l-0.162,0.314l-0.067,0.583c0.07-0.006,0.139-0.017,0.209-0.023
				c1.027-0.096,2.034-0.284,3.011-0.564c1.699-0.486,3.313-1.239,4.795-2.265c2.059,1.431,3.743,3.425,5.013,5.85
				c0.51,0.974,0.952,2.017,1.323,3.123c0.918,2.736,1.41,5.852,1.412,9.24c-0.363,0.997-5.926,2.953-17.138,2.953
				s-16.774-1.956-17.133-2.921c0-3.413,0.494-6.545,1.415-9.291c0.373-1.111,0.815-2.158,1.327-3.133
				c1.271-2.424,2.953-4.409,5.003-5.825c1.415,0.964,2.941,1.696,4.536,2.187c0.979,0.301,1.986,0.5,3.008,0.614
				c0.068,0.008,0.135,0.017,0.203,0.022l-0.063-0.55l-0.159-0.309c-0.025-0.745-0.065-1.482-0.134-2.202
				c-0.006-0.061-0.016-0.119-0.021-0.18h-0.937c-0.736-0.164-1.457-0.385-2.154-0.668c-1.002-0.407-1.958-0.932-2.847-1.57
				c-0.707-0.564-1.771-0.664-2.646-0.138c-3.147,2.026-5.589,5.078-7.216,8.865c-1.287,0.062-2.664,0.098-4.147,0.098
				c-11.212,0-16.774-1.956-17.133-2.921c0-8.229,2.831-14.856,7.744-18.249c2.342,1.595,4.987,2.55,7.747,2.823l-0.063-0.55
				l-1.387-2.69h0.136c-1.793-0.4-3.494-1.154-5-2.238c-0.707-0.564-1.771-0.664-2.646-0.138c-6.056,3.9-9.529,11.57-9.529,21.042
				c0,5.344,14.08,5.921,20.133,5.921c0.875,0,1.92-0.013,3.063-0.05c-0.801,2.773-1.229,5.839-1.229,9.129
				c0,5.344,14.08,5.921,20.133,5.921s20.133-0.577,20.133-5.921c0-3.287-0.428-6.35-1.226-9.12c1.04,0.03,1.992,0.041,2.799,0.041
				c6.053,0,20.133-0.577,20.133-5.921C94.96,35.038,91.487,27.368,85.452,23.481z"/>
		</g>
		<path fill="#12753F" d="M31.154,25.279c6.97,0,12.64-5.67,12.64-12.64S38.124,0,31.154,0s-12.64,5.67-12.64,12.64
			S24.185,25.279,31.154,25.279z M31.154,3c5.315,0,9.64,4.324,9.64,9.64s-4.324,9.64-9.64,9.64s-9.64-4.324-9.64-9.64
			S25.839,3,31.154,3z"/>
		<path fill="#00B050" d="M32.488,29.462l0.04-0.345l0.067-0.583l1.368-2.653l0.019-0.037h-5.785h-0.136l1.387,2.69l0.063,0.55
			l0.043,0.378l-2.222,12.579c-0.046,0.269,0.023,0.542,0.194,0.751l2.775,3.393c0.175,0.218,0.44,0.338,0.718,0.338
			c0.279,0,0.543-0.125,0.719-0.338l2.775-3.393c0.172-0.209,0.241-0.487,0.195-0.751L32.488,29.462z"/>
	</g>
</g>
</svg>
