<?xml version="1.0" encoding="utf-8"?>
<!-- Generator: Adobe Illustrator 16.0.0, SVG Export Plug-In . SVG Version: 6.00 Build 0)  -->
<!DOCTYPE svg PUBLIC "-//W3C//DTD SVG 1.1//EN" "http://www.w3.org/Graphics/SVG/1.1/DTD/svg11.dtd">
<svg version="1.1" id="Layer_1" xmlns="http://www.w3.org/2000/svg" xmlns:xlink="http://www.w3.org/1999/xlink" x="0px" y="0px"
	 width="106.197px" height="65.431px" viewBox="0 0 106.197 65.431" enable-background="new 0 0 106.197 65.431"
	 xml:space="preserve">
<g>
	<polygon fill="#00B050" points="57.146,32.102 48.725,29.238 46.115,30.925 56.271,36.301 66.818,30.816 64.459,29.301 	"/>
	
		<ellipse transform="matrix(0.9879 -0.1549 0.1549 0.9879 -5.2156 8.6796)" opacity="0.1" fill="#00B050" cx="53.099" cy="37.814" rx="53.721" ry="10.462"/>
	<g>
		<path fill="none" stroke="#12753F" stroke-width="3" stroke-linecap="round" stroke-linejoin="round" stroke-miterlimit="10" d="
			M66.39,32.229c-0.3-0.2-0.649-0.149-0.899,0.05c-2.498,1.849-5.545,2.897-8.892,2.897s-6.394-1.099-8.892-2.897
			c-0.25-0.199-0.649-0.199-0.899-0.05c-5.895,3.797-8.842,11.239-8.842,19.781c0,5.895,37.266,5.895,37.266,0
			C75.231,43.468,72.284,36.025,66.39,32.229z"/>
		
			<circle fill="none" stroke="#12753F" stroke-width="3" stroke-linecap="round" stroke-linejoin="round" stroke-miterlimit="10" cx="56.599" cy="20.14" r="11.14"/>
	</g>
</g>
</svg>
